<mxfile host="65bd71144e">
    <diagram id="dWOYwYOIhBMV_kf9qM8K" name="ページ1">
        <mxGraphModel dx="987" dy="718" grid="1" gridSize="10" guides="1" tooltips="1" connect="1" arrows="1" fold="1" page="1" pageScale="1" pageWidth="827" pageHeight="1169" math="0" shadow="0">
            <root>
                <mxCell id="0"/>
                <mxCell id="1" parent="0"/>
                <mxCell id="2" value="" style="shape=image;imageAspect=0;aspect=fixed;verticalLabelPosition=bottom;verticalAlign=top;image=data:image/png,iVBORw0KGgoAAAANSUhEUgAAAyIAAANACAIAAABYE05YAAAAAXNSR0IArs4c6QAAAARnQU1BAACxjwv8YQUAAAAJcEhZcwAADsMAAA7DAcdvqGQAAC3WSURBVHhe7d37s+0HWR7w/BlBScaAv2iEKhdnpHDomDhDiwZq1dJpvdS7tmq9AIroGKPpqFURyBFISFG8VNtqR7yBiGBqqVBROl4oI9iZFqut0zoO48BP9rv3erJY+ea8O2udtd6c9ySfz7zEfXnW2k/iOvGZdUK84Yk7brnllqc+9anPfOYzn/3sZz8XAHjQ533e5+Wj8e644458xKNlGU7PeMYznvKUpyxTKqPq3Mdm1q233nrbbbfd96P3vf3Nb//QH//Pj/6/jz7SfeRKt8rs3iq5uX0yp7rVz3LONd0+v+K2vzCveKuwc86Nvg/98YeW+bSMqNtvv/1TPuVTMq22M+vpT3/6S775JR/8gw/Wf4Pb/TvgBbd61OZWmd3bJ3Oqq37QtoNz7iS3z6+s7S/AK94q7Jxz18d98A8/+NJveemnf/qn33TTTZlZt95660u/5SUX/t1t+/e+i2/1qM2tMru3T+aEV/2sbQ3n3Klun19Zu78MV7dKOufc9XQv+eaXbN7TuuGWW2657bbblvG1Sjz0Vn8HfPit8ru3Sm5un8zJr/pZ2xrOuVPdPr/EdjOrWyWdc+56ug/+wQdvv/32ZWLd8NSnPvXey/euvv3QW/3t7+G3yq9uFV5uFVhuFVjdPpl9rnqezdedcye8fX6J7WZWt0ruecc81jnnTnnLuHrKU55ywzOf+cy3v/ntO9/Y/m1u/9s+9oq3Ci+3Ciy3Cqxun8w+Vz3P5uvOuRPePr/EdjOrWyX3vGMe65xzp7xlXD3jGc+44dnPfvbOf69w+/e49f3X337HD3znE3/+9Tff+4rP237xgbe+44G3/ub2Gev72PM87Fub2w08/PbJ7HPV82y+7pw74e3zS2w3s7pVcs875rHOOXfK+9Aff2iZWDc897nP3fnq9u9x63vjq574G2991bt+551/8Fsv/Nn7bv3z9/3AT7zq4x/4pRe88xdv/chfvHfnGa7u1j/uobdPZp+rnmfzdefcCW+fX2K7mepWD7niXcVDnHOu/ZaJtTuzVn+r+ti9663f9663f/2f/Z8/X+4//tabP/yBT/2Td37CH/7+Ly2fvufdP7Usre0zXtWtf9yjfqs+j3j7POrqntm5x8xtfglc/AthN3PBrR61ulV4uVXAOeeuzW1n1upvUg+5B976jrf/u5vf/cCdm5n1rve8+8Pvf/Lv/dZXbz5d7r2/fut993z/6qkf+iSrb21vN3MNryqz7bm9VWC5VWC5VWC5VcC5x8Pt80tgN3PBrR61ulV4uVXAOTf3PvD7H3jnb7zzird8axVuvVtuefJb3vRrqy8ut3zxSU/6xNUX97y9Ztarvu/v/+nv3PLed754WVTf8tKvfd3lrzyfWV/+I6/+keUr//1/fOBP3vkJD/zKamatn+Sh393cKnDN7u7vuvtJtzxp9cXzWxX+6Fd96Ve+8fU/fnHmod/d3Crg3OPh9vklsJu54FaPWt1BYefcrFvm1F/+r7/867/469X91Z/91fKtVbj1ljl1441PWC2tK35x/9trZv3C/R+/zKxlS73jLXf+9tv+6Xt//db3vf3mt//c33rZt3/tMrPe8+6f+vAHPvUNr1r9vuH6SR763c2tAtfwqj7bqjkzy7m9b59fAruZC271qM2tMttbxZxzo2/ZUsuoWn1xc4/yzFpuNaqO3FjL7TWzvuelH7fMrAf+/RM//P4nn90HPvXszj/4uZ/8R3/6e09dPli2187zrp/h/LbfvSDTcfv8uCqz+fr2PnKlmXWF2MNuFXDu8XD7/BLYzVxwq0cttwrs3ip5/HU8p3MuN2pmLbedVsdvrOX2mlk/+H3f/6q7bszG2i6t9z952V4f/pPnvPctNy9//OV/+9nnz7h+7HI33HDDMk2WPy6+6ku/avnKk2550nasLB8s22X54O7v+t5NZvPB5rubryw2mc1Xts+2fLo81fLBZ932WZvvbr+yePBHbP5Uz77+vt/9o+WDt/3K27a/RbiZTW98/Rs3xZYfvdzmGc4z+cu0ecLlK7szaxNbnP/0jz74JGc/a/nKJrb8xN3nce7xdPkleX6rb21vN3PBrR613Cqwe6vk8dfxnM653LSZtdxmYB2/sZbba2a97GUv/e67v/vNP3VzBtZD712/eNPPvvbm//aed6wetb1liDy4P872yrJylgmynU3LIlm2yPLF5Vubr+zOrO0tY2Uzks6f7eyxyx+XjzdfXL67PMPywfJsmw82Xzz/YPOneva0m+mzPHD7bJsNtDuzts95PpXeuHx3yWw+WL6+fHfzJMt3l/DywXLLYzd/gptnW2LLB5uSS/g8lr/czj2eLr94z2/1re3tZi641aOWWwV2b5U8/jqe07lrf8v/RbvAKtx3j/eZ9Yb77n/vH7xnuZff+fJf/umz3x/cvXe/5VO/7p99zhvv/b7zp1s/9vzO/he5/XnL5tisk/Mvnr3Zs+yV5YPt1ze3+e7m62f/2z63WT/LB5tv7W615YPN+tkkt84n1+ZHn72JtflZ5/vpbP0sX9nMo9W7WcsHD3589/t+932b8bR5kt0ftIktt80sz7w85/Jsy22/snz3wYc797i6/AI5v9W3trebueBWj1puFdi9VfKqr+M5nXPrmzazNhtr+eP2g1XgoHvkmfWmX/i53/v9//QP//Hn/t3Pft6v/cav3v2v7v6Je+/4mX9928u/6aYX/L2P+9bvePlXfO3X/Pgbf2L1qAfv7GecL5L8vGW7bGbK5oPVpw/GMmKWL26H1LJa9pxZm69c8ZYnOZ9WX7mZd8uK2rxNdT6zzp5q+YnLbcLnH5/NrPNxlmJX/EHbzPI8y0M202rZbcvP2plozj3eLr9Azm/1re3tZi641aOWWwV2b5W8uut4TufcFW7UzFpNq+OX1iPPrPf/0R/+5//ylmVmPf9zbnvHb/3KN73km/71G+/92Z/7iZd9wT/4jhd99ou/7aWvft5tyx9Xj3rwzn7Gskg2a2YZH8vHm7W0GTrnK+QsuWyX7SJZ9s1mxGxHz7JXtg/c7psrzqzz8fSxd8VWt8SWwPJsy8fLB5s9tHy8fartT3zw47s3/c8fctFvGm6Sm7213PLx8pDlg827Zc49Lu9jv/Qe9q3t7WYuuNWjllsFdm+VvLrreE7n3BVu2VJ/9Wd/tfrich/+3x9+lGfWFUfVkUvrkWfWA2/9zTf/+puWgfWWt73pp3/yO9/ytv/wa7/xq8unX/zlX7YsrZ++69vv+uJ/sny8etSDd/YzlmmyrI3lj9uNsrnzFZKdtNzy8SazzJflj8tXNrNmsST3fDdruc1DFtsNt70ls3x98/Hmbaft1y+YWZuRt3nC3R+0fLr5+u6WWr64edRyy7c2+8y5x+Wd/TJ58Fbf2t5u5oJbPWq5VWD3Vsmru47ndM5d4Yb860k/8n8/8qQnfeIV59TyxVtuefLqi3ve2cx6/etf/7C/p+zeR5el9fXf8IVvePVnfPj9T/6Tdz3ll3/8pjf91N/5tpd/41d87de86Iu/6Ku/7p//zE/+9MMetbmzn7Gsjc0H5/ex7y4rZ7Ocdu4ss3zx4Qup4dZ9rnSbzPZW393eKuacW26fXyO7mQtu9ajlVoHdWyUPutVTbW8Vc849Bm9ZWquvHH/7zKzlPvryb/nc1//Ag/9Oh/N/+P1Vd934k6+77e7vednv/vbvPSy/vbOfsTOzPvatze+p7X5le6t3udpuXelKt8lsb/Xd7a1iF99VPMS56/G2v0AueMHvZi641aOWWwV2b5Xc/1bPs3urpHPO7XV7zqyPvPgbPvcNP3Tj5e+98d/86M0///qbf+H+j3/XLz7xO77x4x54a/nvcTi/s59xPrMe8vVlSC1f3H0ra/v7g4tqfp36Nn8JVl9c3T6Z5a6Y2Tx291aB5VYB5x5Lt89LfTdzwa0etdwqsHur5P63ep7dWyWdc26v23dmXdVtf8zq60Nun2579r9iZvPY3VsFllsFnHss3T4v9d3MBbd61HKrwO6tkvvf6nl2b5V0zrm97oKZtXx79ZX97yE/42HfHXL7dNuz/xUzm8fu3iqw3Crg3GPp9nmp72ZOdasf8Yi3evgVb/UQ55zb6zrezVr9jNV3r6/b80/hipnNY7e3+u72VjHnHjO3z+t8N3OqW/2Ii2/12OpWj3LOub2udWatvn493p5/IlfMbB67vdV3t7eKOfeYuX1e57uZU93qR1x8q8dWt3qUc87tdX0za/XF6/T2/HO5Ymbz2O2tvru9Vcy5x8zt8zrfzZzqVj/i4ls9trrVo5xzbq+7hjNrn8w1v2P+XDaP3d7qu9tbxZx7zNw+r/PdzKlu9SOqWz3q4ls91jnn9rprNbP2yUy4Y/5cNl/fvVVguVXAucfS7fNS382c6lY/4oq3esgj3urhB92pnsc5d/2dmXXxHfPnsvn67q0Cy60Czj2Wbp+X+m7mVLf6EVe81UMe8VYPP+hO9TzOuevvMrO+HACAkzKzAABamFkAAC3MLACAFrd95X03LFMrnwEAcCJmFgBAiy+868fNLACA0/NuFgBAi7OZ5R+BBwA4OTMLAKCF3zQEAGjx3Oe+2MwCADi9ZWKZWQAAp2dmAQC0OJtZ/hF4AICTM7MAAFr4TUMAgBZmFgBACzMLAKCFmQUA0OKHXmxmAQA0MLMAAFr82I/9mJkFAHB63s0CAGhhZgEAtDCzAABa3HvXl5pZAACn97o3vMHMAgA4vWVimVkAAKdnZgEAtDCzAABamFkAAC3MLACAFmYWAEALMwsAoIWZBQDQwswCAGhhZgEAtDCzAABamFkAAC3MLACAFmYWAEALMwsAoIWZBQDQwswCAGhhZgEAtDCzAABamFkAAC3MLACAFmYWAEALMwsAoIWZBQDQwswCAGhhZgEAtDCzAABamFkAAC3MLACAFmYWAEALMwsAoIWZBQDQwswCAGhhZgEAtDCzAABamFkAAC3MLACAFmYWAEALMwsAoIWZBQDQwswCAGhhZgEAtDCzAABamFkAAC3MLACAFmYWAEALMwsAoIWZBQDQwswCAGhxNrPuvffefAYAwImYWQAALfymIQBACzMLAKCFmQUA0MLMAgBoYWYBALS4//77zSwAgNPzbhYAQAvvZgEAtPBuFgBAC+9mAQC08G4WAEAL72YBALTwbhYAQAszCwCghZkFANDCzAIAaGFmAQC0MLMAAFqYWQAALcwsAIAWZhYAQAsz62B/M1LKFRIaJuUKCQ2TcoWEhkm5QkLDpFwhoWFSrpDQMClXSGiYlCskNEzKFRIaJuU4mpl1sLwGh0m5QkLDpFwhoWFSrpDQMClXSGiYlCskNEzKFRIaJuUKCQ2TcoWEhkm5QkLDpBxHM7MOltfgMClXSGiYlCskNEzKFRIaJuUKCQ2TcoWEhkm5QkLDpFwhoWFSrpDQMClXSGiYlONoZtbB8hocJuUKCQ2TcoWEhkm5QkLDpFwhoWFSrpDQMClXSGiYlCskNEzKFRIaJuUKCQ2TchzNzDpYXoPDpFwhoWFSrpDQMClXSGiYlCskNEzKFRIaJuUKCQ2TcoWEhkm5QkLDpFwhoWFSjqOZWQfLa3CYlCskNEzKFRIaJuUKCQ2TcoWEhkm5QkLDpFwhoWFSrpDQMClXSGiYlCskNEzKcTQz62B5DQ6TcoWEhkm5QkLDpFwhoWFSrpDQMClXSGiYlCskNEzKFRIaJuUKCQ2TcoWEhkk5jmZmHSyvwWFSrpDQMClXSGiYlCskNEzKFRIaJuUKCQ2TcoWEhkm5QkLDpFwhoWFSrpDQMCnH0cysg+U1OEzKFRIaJuUKCQ2TcoWEhkm5QkLDpFwhoWFSrpDQMClXSGiYlCskNEzKFRIaJuU4mpl1sLwGh0m5QkLDpFwhoWFSrpDQMClXSGiYlCskNEzKFRIaJuUKCQ2TcoWEhkm5QkLDpBxHM7MOltfgMClXSGiYlCskNEzKFRIaJuUKCQ2TcoWEhkm5QkLDpFwhoWFSrpDQMClXSGiYlONoZtbB8hocJuUKCQ2TcoWEhkm5QkLDpFwhoWFSrpDQMClXSGiYlCskNEzKFRIaJuUKCQ2TchzNzDpYXoPDpFwhoWFSrpDQMClXSGiYlCskNEzKFRIaJuUKCQ2TcoWEhkm5QkLDpFwhoWFSjqOZWQfLa3CYlCskNEzKFRIaJuUKCQ2TcoWEhkm5QkLDpFwhoWFSrpDQMClXSGiYlCskNEzKcbT777/fzDpMXoPDpFwhoWFSrpDQMClXSGiYlCskNEzKFRIaJuUKCQ2TcoWEhkm5QkLDpFwhoWFSjqN5N+tgeQ0Ok3KFhIZJuUJCw6RcIaFhUq6Q0DApV0homJQrJDRMyhUSGiblCgkNk3KFhIZJOY5mZh0sr8FhUq6Q0DApV0homJQrJDRMyhUSGiblCgkNk3KFhIZJuUJCw6RcIaFhUq6Q0DApx9HMrIPlNThMyhUSGiblCgkNk3KFhIZJuUJCw6RcIaFhUq6Q0DApV0homJQrJDRMyhUSGiblOJqZdbC8BodJuUJCw6RcIaFhUq6Q0DApV0homJQrJDRMyhUSGiblCgkNk3KFhIZJuUJCw6QcRzOzDpbX4DApV0homJQrJDRMyhUSGiblCgkNk3KFhIZJuUJCw6RcIaFhUq6Q0DApV0homJTjaGbWwfIaHCblCgkNk3KFhIZJuUJCw6RcIaFhUq6Q0DApV0homJQrJDRMyhUSGiblCgkNk3Iczb/Q4WB5DQ6TcoWEhkm5QkLDpFwhoWFSrpDQMClXSGiYlCskNEzKFRIaJuUKCQ2TcoWEhkk5jubdrIPlNThMyhUSGiblCgkNk3KFhIZJuUJCw6RcIaFhUq6Q0DApV0homJQrJDRMyhUSGiblOJqZdbC8BodJuUJCw6RcIaFhUq6Q0DApV0homJQrJDRMyhUSGiblCgkNk3KFhIZJuUJCw6QcRzOzDpbX4DApV0homJQrJDRMyhUSGiblCgkNk3KFhIZJuUJCw6RcIaFhUq6Q0DApV0homJTjaGYWAEALMwsAoIWZBQDQwswCAGhhZgEAtDCzAABamFkAAC3MLACAFmYWAEALMwsAoIWZBQDQwswCAGhhZgEAtDCzAABamFkAAC3MLACAFmYWAEALMwsAoIWZBQDQwswCAGhhZgEAtDCzAABamFkAAC3MLACAFmYWAEALMwsAoIWZBQDQwswCAGhhZgEAtDCzAABamFkAAC3MLACAFmYWAEALMwsAoIWZBQDQwsw62N+MlHKFhIZJuUJCw6RcIaFhUq6Q0DApV0homJQrJDRMyhUSGiblCgkNk3KFhIZJOY5mZh0sr8FhUq6Q0DApV0homJQrJDRMyhUSGiblCgkNk3KFhIZJuUJCw6RcIaFhUq6Q0DApx9HMrIPlNThMyhUSGiblCgkNk3KFhIZJuUJCw6RcIaFhUq6Q0DApV0homJQrJDRMyhUSGiblOJqZdbC8BodJuUJCw6RcIaFhUq6Q0DApV0homJQrJDRMyhUSGiblCgkNk3KFhIZJuUJCw6QcRzOzDpbX4DApV0homJQrJDRMyhUSGiblCgkNk3KFhIZJuUJCw6RcIaFhUq6Q0DApV0homJTjaGbWwfIaHCblCgkNk3KFhIZJuUJCw6RcIaFhUq6Q0DApV0homJQrJDRMyhUSGiblCgkNk3Iczcw6WF6Dw6RcIaFhUq6Q0DApV0homJQrJDRMyhUSGiblCgkNk3KFhIZJuUJCw6RcIaFhUo6jmVkHy2twmJQrJDRMyhUSGiblCgkNk3KFhIZJuUJCw6RcIaFhUq6Q0DApV0homJQrJDRMynE0M+tgeQ0Ok3KFhIZJuUJCw6RcIaFhUq6Q0DApV0homJQrJDRMyhUSGiblCgkNk3KFhIZJOY5mZh0sr8FhUq6Q0DApV0homJQrJDRMyhUSGiblCgkNk3KFhIZJuUJCw6RcIaFhUq6Q0DApx9HMrIPlNThMyhUSGiblCgkNk3KFhIZJuUJCw6RcIaFhUq6Q0DApV0homJQrJDRMyhUSGiblOJqZdbC8BodJuUJCw6RcIaFhUq6Q0DApV0homJQrJDRMyhUSGiblCgkNk3KFhIZJuUJCw6QcRzOzDpbX4DApV0homJQrJDRMyhUSGiblCgkNk3KFhIZJuUJCw6RcIaFhUq6Q0DApV0homJTjaGbWwfIaHCblCgkNk3KFhIZJuUJCw6RcIaFhUq6Q0DApV0homJQrJDRMyhUSGiblCgkNk3Iczcw6WF6Dw6RcIaFhUq6Q0DApV0homJQrJDRMyhUSGiblCgkNk3KFhIZJuUJCw6RcIaFhUo6jmVkHy2twmJQrJDRMyhUSGiblCgkNk3KFhIZJuUJCw6RcIaFhUq6Q0DApV0homJQrJDRMynE0M+tgeQ0Ok3KFhIZJuUJCw6RcIaFhUq6Q0DApV0homJQrJDRMyhUSGiblCgkNk3KFhIZJOY52NrMuXbqUz9hDXoPDpFwhoWFSrpDQMClXSGiYlCskNEzKFRIaJuUKCQ2TcoWEhkm5QkLDpFwhoWFSjqMtE8vMOkxeg8OkXCGhYVKukNAwKVdIaJiUKyQ0TMoVEhom5QoJDZNyhYSGSblCQsOkXCGhYVKOo5lZB8trcJiUKyQ0TMoVEhom5QoJDZNyhYSGSblCQsOkXCGhYVKukNAwKVdIaJiUKyQ0TMpxNDPrYHkNDpNyhYSGSblCQsOkXCGhYVKukNAwKVdIaJiUKyQ0TMoVEhom5QoJDZNyhYSGSTmOZmYdLK/BYVKukNAwKVdIaJiUKyQ0TMoVEhom5QoJDZNyhYSGSblCQsOkXCGhYVKukNAwKcfR7rvvPjPrMHkNDpNyhYSGSblCQsOkXCGhYVKukNAwKVdIaJiUKyQ0TMoVEhom5QoJDZNyhYSGSTmO5t2sg+U1OEzKFRIaJuUKCQ2TcoWEhkm5QkLDpFwhoWFSrpDQMClXSGiYlCskNEzKFRIaJuU4mpl1sLwGh0m5QkLDpFwhoWFSrpDQMClXSGiYlCskNEzKFRIaJuUKCQ2TcoWEhkm5QkLDpBxHM7MAAFqYWQAALfwj8AAALbybBQDQwswCAGhhZgEAtLj99ttveP7z78hnAACcyNm7WZ/5mbflMwAATsTMAgBoYWYBALQ4+/dmmVkAACdnZgEAtDCzAABa+GezAABamFkAAC3MLACAFmYWAEALMwsAoIWZBQDQwswCAGhhZgEAtLj99tvNLACA0/NuFgBAC//PdgAAWphZAAAtzCwAgBb+2SwAgBbezQIAaOHdLACAFt7NAgBosXk36zPzGQAAJ3LvvfeaWQAAp2dmAQC08JuGAAAtzCwAgBZm1sH+ZqSUKyQ0TMoVEhom5QoJDZNyhYSGSblCQsOkXCGhYVKukNAwKVdIaJiUKyQ0TMpxNDPrYHkNDpNyhYSGSblCQsOkXCGhYVKukNAwKVdIaJiUKyQ0TMoVEhom5QoJDZNyhYSGSTmOZmYdLK/BYVKukNAwKVdIaJiUKyQ0TMoVEhom5QoJDZNyhYSGSblCQsOkXCGhYVKukNAwKcfRzKyD5TU4TMoVEhom5QoJDZNyhYSGSblCQsOkXCGhYVKukNAwKVdIaJiUKyQ0TMoVEhom5Tiaf6HDwfIaHCblCgkNk3KFhIZJuUJCw6RcIaFhUq6Q0DApV0homJQrJDRMyhUSGiblCgkNk3Iczcw6WF6Dw6RcIaFhUq6Q0DApV0homJQrJDRMyhUSGiblCgkNk3KFhIZJuUJCw6RcIaFhUo6jmVkHy2twmJQrJDRMyhUSGiblCgkNk3KFhIZJuUJCw6RcIaFhUq6Q0DApV0homJQrJDRMynE0/2zWwfIaHCblCgkNk3KFhIZJuUJCw6RcIaFhUq6Q0DApV0homJQrJDRMyhUSGiblCgkNk3IczbtZB8trcJiUKyQ0TMoVEhom5QoJDZNyhYSGSblCQsOkXCGhYVKukNAwKVdIaJiUKyQ0TMpxNO9mHSyvwWFSrpDQMClXSGiYlCskNEzKFRIaJuUKCQ2TcoWEhkm5QkLDpFwhoWFSrpDQMCnH0cysg+U1OEzKFRIaJuUKCQ2TcoWEhkm5QkLDpFwhoWFSrpDQMClXSGiYlCskNEzKFRIaJuU4mpl1sLwGh0m5QkLDpFwhoWFSrpDQMClXSGiYlCskNEzKFRIaJuUKCQ2TcoWEhkm5QkLDpBxHM7MOltfgMClXSGiYlCskNEzKFRIaJuUKCQ2TcoWEhkm5QkLDpFwhoWFSrpDQMClXSGiYlONoZtbB8hocJuUKCQ2TcoWEhkm5QkLDpFwhoWFSrpDQMClXSGiYlCskNEzKFRIaJuUKCQ2TchzNf9PwYHkNDpNyhYSGSblCQsOkXCGhYVKukNAwKVdIaJiUKyQ0TMoVEhom5QoJDZNyhYSGSTmO5t2sg+U1OEzKFRIaJuUKCQ2TcoWEhkm5QkLDpFwhoWFSrpDQMClXSGiYlCskNEzKFRIaJuU4mpl1sLwGh0m5QkLDpFwhoWFSrpDQMClXSGiYlCskNEzKFRIaJuUKCQ2TcoWEhkm5QkLDpBxHM7MOltfgMClXSGiYlCskNEzKFRIaJuUKCQ2TcoWEhkm5QkLDpFwhoWFSrpDQMClXSGiYlONoZtbB8hocJuUKCQ2TcoWEhkm5QkLDpFwhoWFSrpDQMClXSGiYlCskNEzKFRIaJuUKCQ2TchzNzDpYXoPDpFwhoWFSrpDQMClXSGiYlCskNEzKFRIaJuUKCQ2TcoWEhkm5QkLDpFwhoWFSjqOdzaznP/+OfMYe8hocJuUKCQ2TcoWEhkm5QkLDpFwhoWFSrpDQMClXSGiYlCskNEzKFRIaJuUKCQ2TchztbGYt/8ln7CGvwWFSrpDQMClXSGiYlCskNEzKFRIaJuUKCQ2TcoWEhkm5QkLDpFwhoWFSrpDQMCnH0cysg+U1OEzKFRIaJuUKCQ2TcoWEhkm5QkLDpFwhoWFSrpDQMClXSGiYlCskNEzKFRIaJuU4mpl1sLwGh0m5QkLDpFwhoWFSrpDQMClXSGiYlCskNEzKFRIaJuUKCQ2TcoWEhkm5QkLDpBxHM7MOltfgMClXSGiYlCskNEzKFRIaJuUKCQ2TcoWEhkm5QkLDpFwhoWFSrpDQMClXSGiYlONoZhYAzJXhc6A8mGvNzAKAubKbDpQHc62ZWQAwVEbTVclTcE2ZWQAwVBbTVclTcE2ZWQAwVBbTVclTcE2dzazLly/nMwBgjCymq5Kn4JoyswBgqCymq5Kn4Jrym4YAMFQW01XJU3BNeTcLAObKaDpQHsy1djazXvGKV+QzAGCS7KYD5cFca2YWAIyW6bS3PIwBzCwAmC4Dag95ADOYWQBwHciMulCijHE2s+699958BgBMlTFVSIhJzmbW8p98BgDMllW1I99gHjMLAKCFmQUA0MLMAgBoYWYBALQwswAAWphZAAAtzCwAgBZmFgBACzMLAKCFmQUA0MLMAgBoYWYBALQwswAAWrzuda8zswAATs+7WQAALcwsAIAWftMQAKCFd7MAAFqYWQAALcwsAIAWZhYAQAv/CDwAQAvvZgEAtDCzAABamFkAAC3MLACAFmYWAEALMwsAoIWZBQDQwswCAGhhZgEAtDCzAABamFkAAC3MLACAFmYWAEALMwsAoIWZBQDQwswCAGhhZgEAtDibWZcvX85nAACciHezAABamFkAAC3MLACAFmYWAEALMwsAoIWZBQDQwswCAGhhZgEAtDCzAABamFkAAC3MLACAFmYWAEALMwsAoIWZBQDQwswCAGhhZgEAtDCzAABamFkAAC3MLACAFmYWAEALMwsAoIWZBQDQwswCAGhhZgEAtDCzAABamFkAAC3MLACAFmYWAEALMwsAoIWZBQDQwswCAGhhZgEAtDCzAABamFkAAC3MLACAFmYWAEALMwsAoIWZBQDQwswCAGhhZgEAtDCzAABamFkAAC3MLACAFmYWAEALMwsAoIWZBQDQwswCAGhhZgEAtDCzAABamFkAAC3MLACAFmYWAEALMwsAoIWZBQDQwswCAGhhZgEAtDCzAABamFkAAC3MLACAFmYWAEALMwsAoIWZBQDQ4rWvfa2ZBQBwet7NAgBoYWYBALQwswAAWphZAAAtzCwAgBZmFgBACzMLAKCFmQUA0MLMAgBoYWYBALQwswAAWphZAAAtzCwAgBZmFgBACzMLAKCFmQUA0MLMAgBoYWYBALQwswAAWphZAAAtzCwAgBZmFgBACzMLAKDFa1/7WjMLAOD0vJsFANDCzAIAaGFmAQC0MLMAAFr4R+ABAFp4NwsAoIWZBQDQwswCAGhhZgEAtDCzAABanM2se+65J58BAHAi3s0CAGhhZgEAtPiX/8LMAgBoYGYBALTw/2wHAKCFd7MAAFqczaxXv/rV+QwAgBO527tZAAAdXvkdX2hmAQCc3itf8xozCwDg9JaJZWYBAJyemQUA0MLMAgBoYWYBALQwswAAWphZAAAtzmbWl33Zl+UzAABO5Gxm/fAP/3A+AwDgRLybBQDQwj+bBQDQ4mxmfcEXfEE+AwDgRM5m1l133ZXPAAA4kbOZdeedd+YzAABOxG8aAgC0MLMAAFqczazP//zPz2cAAJyImQUA0MLMAgBocTazlv/kMwAATsTMAgBoYWYBALQwswAAWphZAAAtzCwAgBZmFgBACzMLAKDFa17zGjMLAOD0vJsFANDCzAIAaGFmAQC0MLMAAFqYWQAALfw3DQEAWng3CwCghZkFANDCzAIAaGFmAQC0MLMAAFqYWQAALcwsAIAWZhYAQAszCwCghZkFANDCzAIAaGFmAQC0MLMAAFqYWQAALcwsAIAWZhYAQAszCwCghZkFANDCzAIAaGFmAQC0MLMAAFqYWQAALcwsAIAWZhYAQAszCwCghZkFANDCzAIAaGFmAQC0MLMAAFqYWQAALcwsAIAWZhYAQAszCwCghZkFANDCzAIAaGFmAQC0MLMAAFqYWQAALcwsAIAWZhYAQAszCwCghZkFANDCzAIAaGFmAQC0MLMAAFqYWQAALcwsAIAWZhYAQAszCwCghZkFANDCzAIAaGFmAQC0MLMAAFqYWQAALcwsAIAWZhYAQAszCwCghZkFANDCzAIAaGFmAQC0MLMAAFqYWQAALcwsAIAWZhYAQAszCwCghZkFANDCzAIAaGFmAQC0MLMAAFqYWQAALcwsAIAWZhYAQAszCwCgxeXLl80sAIDT824WAEALMwsAoIXfNAQAaOHdLACAFmYWAEALMwsAoIWZBQDQwswCAGhhZgEAtDCzAABamFkAAC3MLACAFv4t8AAALbybBQDQwswCAGhhZgEAtDCzAABamFkAAC3MLACAFv6FDgAALcwsAIAWftMQAKDF2cx6wQtekM8AADgR72YBALQwswAAWphZAAAtzCwAgBZmFgBACzMLAKCFmQUA0MLMAgBoYWYBALQwswAAWphZAAAtzCwAgBZmFgBACzMLAKCFmQUA0MLMAgBoYWYBALQwswAAWphZAAAtzCwAgBZmFgBACzMLAKCFmQUA0MLMAgBoYWYBALQwswAAWphZAAAtzCwAgBZnM+uVr3xlPgMA4ES8mwUA0MLMAgBoYWYBALQwswAAWphZAAAtzCwAgBZmFgBACzMLAKCFmQUA0MLMAgBoYWYBALQwswAAWphZAAAtzCwAgBZmFgBACzMLAKCFmQUA0MLMAgBoYWYBALQwswAAWphZAAAtzCwAgBZmFgBACzMLAKCFmQUA0MLMAgBoYWYBALQwswAAWphZAAAtzCwAgBZmFgBACzMLAKDF5cuXzSwAgNPzbhYAQAszCwCghZkFANDCzAIAaGFmAQC0MLMAAFqYWQAALcwsAIAWZhYAQAszCwCghZkFANDCzAIAaHE2s57znOfkMwAATmSZWGYWAMDpmVkAAC3MLACAFmYWAEALMwsAoIWZBQDQwswCAGhhZgEAtDCzAABamFkAAC3MLACAFmYWAEALMwsAoIWZBQDQwswCAGhhZgEAtDCzAABanM2sS5cu5TMAAE5kmVhmFgDA6ZlZAAAtzCwAgBZmFgBACzMLAKCFmQUA0MLMAgBoYWYBALQwswAAWphZAAAtzCwAgBZmFgBACzMLAKDF5cuXzSwAgNPzbhYAQAszCwCghZkFANDCzAIAaHE2s57znOfkMwAATmSZWGYWAMDpmVkAAC3MLACAFmYWAEALMwsAoIWZBQDQwswCAGhhZgEAtDCzAABa3HPPPWYWAMDpeTcLAKCFmQUA0MJvGgIAtPBuFgBACzMLAKCFmQUA0MLMAgBoYWYBALQwswAAWphZAAAtzCwAgBZmFgBACzMLAKCFmQUA0MLMAgBoYWYBALQwswAAWphZAAAtzCwAgBZmFgBACzMLAKCFmQUA0MLMAgBoYWYBALQwswAAWphZAAAtzCwAgBZmFgBACzMLAKCFmQUA0MLMAgBoYWYBALQwswAAWphZAAAtzCwAgBZmFgBACzMLAKCFmQUA0MLMAgBoYWYBALQwswAAWphZAAAtzCwAgBZmFgBACzMLAKCFmQUA0MLMAgBoYWYBALQwswAAWphZAAAtzCwAgBZmFgBACzMLAKCFmQUA0MLMAgBoYWYBALS45557zCwAgNPzbhYAQAszCwCghZkFANDCzAIAaGFmAQC0MLMAAFqYWQAALcwsAIAWZhYAQAszCwCghZkFANDCzAIAaGFmAQC0MLMAAFqYWQAALcwsAIAW33PPPWYWAMDpeTcLAKDF2cz6wR/8wXwGAMCJeDcLAKCFmQUA0MLMAgBoYWYBALR4hX+hAwBAB+9mAQC0OJtZ3/qt35rPAAA4kbOZdeedd+YzAABOxG8aAgC0MLMAAFqYWQAALcwsAIAWZhYAQAszCwCghZkFPBr+hr3lLxlw/TOzgEdDFgR7yF8y4PpnZgGPhiwI9pC/ZMD1z8wCHg1ZEOwhf8mA65+ZBTwasiDYQ/6SAdc/Mwt4NGRBsIf8JQOuf2YW8GjIgmAP+UsGXP/MLODRkAXBHvKXDLj+mVnAoyELgj3kLxlw/TOzgEdDFgR7yF8y4PpnZgEAtDCzAABamFkAAC3MLACAFpcuXTKzAABOz8wCAGhhZgEAtDCzAABamFkAAC3MLACAFmcz64477shnAACcyAte8ALvZgEAnJ7fNAQAaGFmAQC0MLMAAFqYWQAALcwsAIAWZhYAQAszCwCghZkFANDCzAIAaGFmAQC0MLMAAFosE8vMAgA4PTMLAKCFmQUA0MLMAgBoYWYBALQwswAAWphZAAAtzCwAgBZnM+vSpUv5DACAEzn7t8CbWQAAJ3c2s571rGd9yZd8Sb4AAMDRlnG1TKwbnva0p73oRS/K1wAAONoyrpaJdcOtt976whe+MF8DAOBoy7haJtYNN99886VLl77oi74oXwYA4AjLrFrG1TKxbrjxxhs/6ZM+6XnPe16+AwDAEZZZtYyrZWLd8IQnPGH5H09/+tOXL3lPCwDgqi1TahlUy6xa9tUiM2v54zK7Ll269MIXvvBFL3qR/+4hAMCeluG0zKdlRC1TahlU23GVmbVx00033XrrrU972tOe9axnPeeRPBs4xN+G61xeyvD4k+lT+4zP+IxP+7RP++RP/uRlSmVULTPrCU/4/1hBBBQR0wYMAAAAAElFTkSuQmCC;" vertex="1" parent="1">
                    <mxGeometry x="160" y="180" width="501" height="520" as="geometry"/>
                </mxCell>
                <mxCell id="3" value="" style="ellipse;whiteSpace=wrap;html=1;fillColor=none;strokeColor=#FF8000;strokeWidth=5;" vertex="1" parent="1">
                    <mxGeometry x="540" y="320" width="70" height="60" as="geometry"/>
                </mxCell>
                <mxCell id="4" value="" style="endArrow=classic;html=1;entryX=0.719;entryY=0.404;entryDx=0;entryDy=0;entryPerimeter=0;strokeColor=#FF8000;strokeWidth=5;" edge="1" parent="1" target="2">
                    <mxGeometry width="50" height="50" relative="1" as="geometry">
                        <mxPoint x="570" y="360" as="sourcePoint"/>
                        <mxPoint x="620" y="310" as="targetPoint"/>
                    </mxGeometry>
                </mxCell>
                <mxCell id="6" value="ブロックの位置情報と&lt;br&gt;ボールの位置情報が&lt;br&gt;重なると移動方向を変更する" style="text;html=1;strokeColor=none;fillColor=none;align=left;verticalAlign=middle;whiteSpace=wrap;rounded=0;strokeWidth=5;fontSize=18;fontColor=#FF8000;" vertex="1" parent="1">
                    <mxGeometry x="414" y="420" width="260" height="30" as="geometry"/>
                </mxCell>
            </root>
        </mxGraphModel>
    </diagram>
</mxfile>